<?xml version="1.0" standalone="no"?>
<!DOCTYPE svg PUBLIC "-//W3C//DTD SVG 20010904//EN"
 "http://www.w3.org/TR/2001/REC-SVG-20010904/DTD/svg10.dtd">
<svg version="1.0" xmlns="http://www.w3.org/2000/svg"
 width="1826" height="291" viewBox="0 0 1826.000000 291.000000"
 preserveAspectRatio="xMidYMid meet">

<g transform="translate(0.000000,291.000000) scale(0.100000,-0.100000)"
fill="#000000" stroke="none">
<path d="M1210 2744 c-355 -192 -374 -204 -400 -247 -19 -31 -20 -54 -20 -623
l0 -592 -272 -145 c-379 -201 -457 -247 -487 -286 l-26 -34 -3 -356 c-3 -381
-1 -421 25 -421 9 0 267 133 572 296 948 506 910 484 930 531 15 37 11 2035
-4 2039 -5 2 -147 -71 -315 -162z"/>
<path d="M1626 2864 c-9 -71 -6 -1913 4 -1964 11 -58 44 -86 192 -166 634
-340 1307 -694 1321 -694 16 0 17 30 17 386 0 350 -2 389 -17 416 -24 39 -101
86 -458 277 l-300 160 -8 593 c-8 666 -4 631 -85 685 -64 42 -640 353 -654
353 -3 0 -8 -21 -12 -46z"/>
<path d="M14544 2770 c-224 -58 -388 -213 -461 -435 -23 -69 -26 -98 -27 -210
0 -106 4 -145 22 -208 86 -301 327 -477 651 -477 126 0 209 18 308 66 83 40
185 129 233 204 38 59 76 165 86 238 l7 52 -175 0 -174 0 -17 -52 c-69 -218
-381 -264 -517 -76 -43 58 -58 98 -71 180 -19 120 16 246 91 331 64 73 206
108 313 78 72 -21 151 -96 178 -172 l22 -59 174 0 175 0 -7 53 c-32 239 -210
431 -456 491 -91 22 -263 20 -355 -4z"/>
<path d="M15984 2770 c-224 -58 -388 -213 -461 -435 -23 -69 -26 -98 -27 -210
0 -106 4 -145 22 -208 86 -301 327 -477 651 -477 126 0 209 18 308 66 83 40
185 129 233 204 38 59 76 165 86 238 l7 52 -175 0 -174 0 -17 -52 c-69 -218
-381 -264 -517 -76 -43 58 -58 98 -71 180 -19 120 16 246 91 331 64 73 206
108 313 78 72 -21 151 -96 178 -172 l22 -59 174 0 175 0 -7 53 c-32 239 -210
431 -456 491 -91 22 -263 20 -355 -4z"/>
<path d="M17570 2750 l0 -40 40 0 40 0 0 -110 0 -110 45 0 44 0 3 108 3 107
43 3 c42 3 42 3 42 43 l0 39 -130 0 -130 0 0 -40z"/>
<path d="M17880 2640 l0 -150 40 0 39 0 3 83 3 82 35 -83 c33 -80 35 -83 64
-80 27 3 33 11 61 75 17 40 35 76 38 80 4 3 7 -30 7 -75 l0 -82 40 0 40 0 0
150 0 150 -53 0 -53 0 -39 -97 -39 -96 -23 49 c-12 27 -31 70 -42 96 l-20 48
-50 0 -51 0 0 -150z"/>
<path d="M3800 2115 l0 -665 435 0 435 0 0 160 0 160 -260 0 -260 0 0 505 0
505 -175 0 -175 0 0 -665z"/>
<path d="M5215 2768 c-11 -30 -445 -1312 -445 -1315 0 -1 78 -3 174 -3 l175 0
41 130 41 130 241 -2 242 -3 40 -127 39 -128 179 0 c171 0 179 1 173 19 -3 10
-104 308 -224 662 l-218 644 -227 3 c-176 2 -228 0 -231 -10z m305 -538 c38
-124 70 -228 70 -232 0 -5 -67 -8 -150 -8 -82 0 -150 2 -150 4 0 1 4 16 9 32
6 16 40 124 77 239 37 116 68 206 70 200 2 -5 35 -111 74 -235z"/>
<path d="M6250 2115 l0 -665 165 0 165 0 0 418 c1 348 3 413 14 392 7 -14 80
-202 162 -418 l149 -392 115 2 115 3 155 407 c86 224 159 410 163 414 4 4 7
-180 7 -409 l0 -417 165 0 165 0 0 665 0 665 -224 0 -224 0 -152 -397 c-83
-219 -155 -401 -158 -405 -4 -4 -77 174 -162 395 l-155 402 -233 3 -232 2 0
-665z"/>
<path d="M8040 2115 l0 -665 368 0 c396 0 444 5 541 54 64 33 135 113 157 179
24 70 24 195 0 266 -23 66 -80 126 -153 161 l-52 24 32 19 c119 71 175 197
147 333 -24 116 -86 195 -193 245 -93 42 -161 49 -519 49 l-328 0 0 -665z
m620 376 c62 -12 90 -47 90 -111 0 -41 -5 -56 -29 -82 l-29 -33 -156 -3 -156
-3 0 114 c0 62 3 117 7 120 9 10 220 8 273 -2z m58 -529 c35 -20 54 -57 54
-107 0 -50 -19 -87 -54 -107 -16 -8 -74 -12 -178 -13 l-155 0 -3 109 c-1 61 0
116 3 124 4 12 32 14 158 10 93 -2 161 -9 175 -16z"/>
<path d="M9300 2115 l0 -665 460 0 460 0 0 155 0 155 -285 0 -285 0 0 105 0
105 235 0 235 0 0 150 0 150 -235 0 -235 0 0 100 0 100 285 0 285 0 0 155 0
155 -460 0 -460 0 0 -665z"/>
<path d="M10410 2116 l0 -666 175 0 175 0 0 220 0 220 58 0 57 -1 130 -219
130 -219 193 -1 c181 0 192 1 183 18 -5 9 -72 118 -149 241 l-140 225 57 34
c79 47 127 97 161 167 86 177 45 398 -99 528 -45 41 -79 60 -160 90 -52 19
-81 21 -413 25 l-358 4 0 -666z m660 335 c71 -37 89 -145 35 -209 -34 -40 -84
-52 -224 -52 l-121 0 0 140 0 140 138 0 c115 0 143 -3 172 -19z"/>
<path d="M11590 2620 l0 -160 175 0 175 0 0 -505 0 -505 170 0 170 0 0 505 0
505 180 0 180 0 0 160 0 160 -525 0 -525 0 0 -160z"/>
<path d="M12780 2332 c0 -417 1 -454 20 -528 40 -155 139 -268 284 -326 74
-29 93 -32 216 -36 157 -5 225 9 333 65 79 42 145 111 189 196 54 108 58 149
58 635 l0 442 -170 0 -170 0 0 -407 c0 -242 -5 -426 -11 -453 -24 -105 -93
-159 -202 -160 -86 0 -141 32 -181 105 -20 39 -21 52 -24 478 l-3 437 -169 0
-170 0 0 -448z"/>
<path d="M16990 2115 l0 -665 175 0 175 0 0 665 0 665 -175 0 -175 0 0 -665z"/>
<path d="M1353 655 c-103 -52 -251 -127 -328 -167 -77 -41 -280 -147 -452
-237 -171 -89 -319 -168 -328 -174 -10 -8 -14 -19 -9 -30 6 -16 85 -17 1348
-15 1310 3 1341 3 1341 22 0 15 -51 46 -215 133 -391 208 -1034 539 -1069 551
-66 23 -93 15 -288 -83z"/>
<path d="M10059 536 c-69 -18 -111 -47 -146 -100 -42 -62 -57 -117 -49 -189
15 -143 115 -237 253 -237 112 0 186 40 228 123 37 75 34 87 -20 87 -41 0 -46
-3 -59 -33 -30 -74 -126 -114 -198 -84 -90 38 -132 158 -89 252 34 76 107 116
181 100 40 -9 96 -57 104 -90 6 -23 11 -25 57 -25 51 0 51 0 44 28 -20 84 -90
152 -175 171 -56 13 -74 13 -131 -3z"/>
<path d="M10780 539 c-137 -27 -227 -164 -205 -313 11 -68 61 -145 119 -181
43 -26 61 -30 133 -34 70 -3 89 0 125 19 100 51 148 131 148 245 0 180 -144
299 -320 264z m155 -113 c43 -33 66 -86 66 -151 0 -92 -41 -152 -121 -176
-133 -40 -252 112 -195 249 20 46 51 80 90 98 43 20 120 11 160 -20z"/>
<path d="M12145 541 c-87 -21 -135 -75 -135 -149 0 -51 22 -93 59 -115 14 -8
62 -23 106 -32 122 -27 142 -41 136 -95 -1 -8 -14 -26 -28 -39 -23 -20 -34
-23 -82 -19 -44 4 -59 10 -78 32 -13 15 -23 34 -23 42 0 10 -13 14 -50 14 -56
0 -60 -7 -36 -63 18 -44 78 -95 121 -103 65 -12 172 0 202 22 47 35 73 82 73
131 0 89 -51 130 -194 158 -115 22 -144 58 -91 110 47 48 161 26 180 -35 5
-16 15 -20 51 -20 38 0 44 3 44 21 0 94 -136 169 -255 140z"/>
<path d="M14699 536 c-69 -18 -111 -47 -146 -100 -42 -62 -57 -117 -49 -189
15 -143 115 -237 253 -237 112 0 186 40 228 123 37 75 34 87 -20 87 -41 0 -46
-3 -59 -33 -30 -74 -126 -114 -198 -84 -90 38 -132 158 -89 252 34 76 107 116
181 100 40 -9 96 -57 104 -90 6 -23 11 -25 57 -25 51 0 51 0 44 28 -20 84 -90
152 -175 171 -56 13 -74 13 -131 -3z"/>
<path d="M16330 539 c-137 -27 -227 -164 -205 -313 11 -68 61 -145 119 -181
43 -26 61 -30 133 -34 70 -3 89 0 125 19 100 51 148 131 148 245 0 180 -144
299 -320 264z m155 -113 c43 -33 66 -86 66 -151 0 -92 -41 -152 -121 -176
-133 -40 -252 112 -195 249 20 46 51 80 90 98 43 20 120 11 160 -20z"/>
<path d="M11330 275 l0 -265 50 0 50 0 0 183 0 182 120 -183 119 -182 51 0 50
0 0 265 0 265 -45 0 -45 0 -2 -182 -3 -183 -123 183 -122 182 -50 0 -50 0 0
-265z"/>
<path d="M12600 495 l0 -45 75 0 75 0 0 -220 0 -220 50 0 50 0 0 220 0 220 80
0 80 0 0 45 0 45 -205 0 -205 0 0 -45z"/>
<path d="M13220 276 l0 -266 50 0 50 0 0 95 0 95 43 0 42 0 60 -95 60 -95 53
0 c28 0 52 2 52 5 0 2 -25 43 -56 91 -30 47 -57 91 -60 98 -2 6 12 20 32 31
99 53 97 214 -3 276 -34 22 -52 24 -180 27 l-143 4 0 -266z m242 174 c43 -12
58 -34 58 -82 0 -60 -29 -78 -129 -78 l-71 0 0 85 0 85 53 0 c28 0 69 -5 89
-10z"/>
<path d="M13852 348 c3 -219 11 -246 81 -302 37 -30 43 -31 132 -31 89 0 95 1
132 31 70 56 78 83 81 302 l4 192 -51 0 -50 0 -3 -190 c-3 -188 -3 -190 -28
-215 -50 -50 -124 -49 -171 1 -23 25 -24 30 -27 215 l-3 189 -51 0 -50 0 4
-192z"/>
<path d="M15180 495 l0 -45 75 0 75 0 0 -220 0 -220 50 0 50 0 0 220 0 220 80
0 80 0 0 45 0 45 -205 0 -205 0 0 -45z"/>
<path d="M15800 275 l0 -265 50 0 50 0 0 265 0 265 -50 0 -50 0 0 -265z"/>
<path d="M16890 275 l0 -265 50 0 50 0 0 183 0 182 120 -183 119 -182 51 0 50
0 0 265 0 265 -45 0 -45 0 -2 -182 -3 -183 -123 183 -122 182 -50 0 -50 0 0
-265z"/>
</g>
</svg>
